<?xml version="1.0" standalone="no"?><!DOCTYPE svg PUBLIC "-//W3C//DTD SVG 1.1//EN" "http://www.w3.org/Graphics/SVG/1.1/DTD/svg11.dtd"><svg t="1784826256819" class="icon" viewBox="0 0 1024 1024" version="1.1" xmlns="http://www.w3.org/2000/svg" p-id="8655" xmlns:xlink="http://www.w3.org/1999/xlink" width="200" height="200"><path d="M0 0m204.8 0l614.4 0q204.8 0 204.8 204.8l0 614.4q0 204.8-204.8 204.8l-614.4 0q-204.8 0-204.8-204.8l0-614.4q0-204.8 204.8-204.8Z" fill="#48B5FF" p-id="8656"></path><path d="M819.2 0H534.272A756.224 756.224 0 0 0 0 483.584V819.2a204.8 204.8 0 0 0 204.8 204.8h614.4a204.8 204.8 0 0 0 204.8-204.8V204.8a204.8 204.8 0 0 0-204.8-204.8z" fill="#4DAFFF" p-id="8657"></path><path d="M819.2 0h-3.84a754.944 754.944 0 0 0-539.392 1024H819.2a204.8 204.8 0 0 0 204.8-204.8V204.8a204.8 204.8 0 0 0-204.8-204.8z" fill="#50A8FF" p-id="8658"></path><path d="M497.152 721.152A751.104 751.104 0 0 0 560.384 1024H819.2a204.8 204.8 0 0 0 204.8-204.8V204.8a204.8 204.8 0 0 0-89.088-168.96 754.688 754.688 0 0 0-437.76 685.312z" fill="#50A0FF" p-id="8659"></path><path d="M230.4 409.6a25.6 25.6 0 0 0 25.6-25.6v-128a25.6 25.6 0 0 1 25.6-25.6h128a25.6 25.6 0 0 0 0-51.2h-128a76.8 76.8 0 0 0-76.8 76.8v128a25.6 25.6 0 0 0 25.6 25.6zM742.4 179.2h-128a25.6 25.6 0 0 0 0 51.2h128a25.6 25.6 0 0 1 25.6 25.6v128a25.6 25.6 0 0 0 51.2 0v-128a76.8 76.8 0 0 0-76.8-76.8z" fill="#FFFFFF" p-id="8660"></path><path d="M409.6 793.6h-128a25.6 25.6 0 0 1-25.6-25.6v-128a25.6 25.6 0 0 0-51.2 0v128a76.8 76.8 0 0 0 76.8 76.8h128a25.6 25.6 0 0 0 0-51.2zM793.6 614.4a25.6 25.6 0 0 0-25.6 25.6v128a25.6 25.6 0 0 1-25.6 25.6h-128a25.6 25.6 0 0 0 0 51.2h128a76.8 76.8 0 0 0 76.8-76.8v-128a25.6 25.6 0 0 0-25.6-25.6z" fill="#E9F6FF" p-id="8661"></path><path d="M819.2 486.4H204.8a25.6 25.6 0 0 0 0 51.2h614.4a25.6 25.6 0 0 0 0-51.2z" fill="#FFFFFF" p-id="8662"></path></svg>