<?xml version="1.0" standalone="no"?><!DOCTYPE svg PUBLIC "-//W3C//DTD SVG 1.1//EN" "http://www.w3.org/Graphics/SVG/1.1/DTD/svg11.dtd"><svg t="1784083043445" class="icon" viewBox="0 0 1024 1024" version="1.1" xmlns="http://www.w3.org/2000/svg" p-id="2581" xmlns:xlink="http://www.w3.org/1999/xlink" width="200" height="200"><path d="M512 482.742857c-21.942857 0-36.571429-14.628571-36.571429-36.571428v-36.571429c0-21.942857 14.628571-36.571429 36.571429-36.571429s29.257143 0 43.885714-14.628571c14.628571-7.314286 21.942857-21.942857 29.257143-29.257143v-43.885714c0-14.628571-7.314286-29.257143-21.942857-36.571429-7.314286-7.314286-21.942857-14.628571-36.571429-21.942857h-43.885714c-14.628571 0-21.942857 14.628571-36.571428 29.257143-7.314286 14.628571-14.628571 29.257143-14.628572 43.885714 0 14.628571-14.628571 36.571429-36.571428 36.571429s-36.571429-14.628571-36.571429-36.571429c0-29.257143 7.314286-58.514286 21.942857-80.457143 14.628571-21.942857 36.571429-43.885714 65.828572-51.2 29.257143-14.628571 58.514286-14.628571 87.771428-7.314285 29.257143 0 51.2 21.942857 73.142857 36.571428 21.942857 14.628571 36.571429 43.885714 36.571429 73.142857s0 58.514286-7.314286 87.771429c-14.628571 29.257143-29.257143 51.2-51.2 65.828571l-43.885714 21.942858c0 21.942857-14.628571 43.885714-36.571429 43.885714l7.314286-7.314286zM512 629.028571c-29.257143 0-58.514286-21.942857-58.514286-58.514285S475.428571 512 512 512s36.571429 14.628571 36.571429 36.571429v29.257142c0 21.942857-14.628571 36.571429-36.571429 36.571429v14.628571z" fill="#000000" p-id="2582"></path><path d="M512 629.028571c-21.942857 0-36.571429-14.628571-36.571429-36.571428v-29.257143c0-21.942857 14.628571-36.571429 36.571429-36.571429 29.257143 0 58.514286 21.942857 58.514286 58.514286s-21.942857 58.514286-58.514286 58.514286v-14.628572z" fill="#000000" p-id="2583"></path><path d="M914.285714 1024H219.428571c-36.571429 0-73.142857-14.628571-102.4-43.885714-29.257143-29.257143-43.885714-65.828571-43.885714-102.4V146.285714c0-36.571429 14.628571-73.142857 43.885714-102.4C146.285714 14.628571 182.857143 0 219.428571 0h621.714286c29.257143 0 58.514286 14.628571 80.457143 29.257143 21.942857 21.942857 29.257143 51.2 29.257143 80.457143v585.142857c0 29.257143-14.628571 58.514286-29.257143 80.457143-14.628571 21.942857-51.2 29.257143-80.457143 29.257143H219.428571c-21.942857 0-36.571429 7.314286-51.2 21.942857-14.628571 14.628571-21.942857 29.257143-21.942857 51.2 0 21.942857 7.314286 36.571429 21.942857 51.2 14.628571 14.628571 29.257143 21.942857 51.2 21.942857h694.857143c21.942857 0 36.571429 14.628571 36.571429 36.571428s-14.628571 36.571429-36.571429 36.571429zM219.428571 73.142857c-21.942857 0-36.571429 7.314286-51.2 21.942857-14.628571 14.628571-21.942857 29.257143-21.942857 51.2v607.085715c21.942857-14.628571 43.885714-21.942857 73.142857-21.942858h621.714286c7.314286 0 21.942857 0 29.257143-7.314285 7.314286-7.314286 7.314286-14.628571 7.314286-29.257143v-585.142857c0-7.314286 0-21.942857-7.314286-29.257143 0 0-14.628571-7.314286-29.257143-7.314286H219.428571z" fill="#000000" p-id="2584"></path><path d="M841.142857 1024c-21.942857 0-36.571429-14.628571-36.571428-36.571429v-219.428571c0-21.942857 14.628571-36.571429 36.571428-36.571429s36.571429 14.628571 36.571429 36.571429v219.428571c0 21.942857-14.628571 36.571429-36.571429 36.571429z" fill="#000000" p-id="2585"></path></svg>