<?xml version="1.0" standalone="no"?><!DOCTYPE svg PUBLIC "-//W3C//DTD SVG 1.1//EN" "http://www.w3.org/Graphics/SVG/1.1/DTD/svg11.dtd"><svg t="1783752416177" class="icon" viewBox="0 0 1024 1024" version="1.1" xmlns="http://www.w3.org/2000/svg" p-id="5560" xmlns:xlink="http://www.w3.org/1999/xlink" width="200" height="200"><path d="M103.36 375.488c-6.4 0-12.8 0-25.6-6.4-19.2-12.8-25.6-38.4-12.8-64 70.4-121.6 185.6-204.8 320-243.2 140.8-32 281.6-12.8 403.2 57.6 38.4 19.2 70.4 44.8 96 76.8v-44.8c0-25.6 19.2-44.8 44.8-44.8s44.8 19.2 44.8 44.8v172.8c0 19.2-12.8 38.4-32 44.8-19.2 6.4-38.4 0-51.2-19.2-38.4-64-89.6-115.2-153.6-147.2-96-64-217.6-76.8-326.4-51.2-115.2 32-211.2 102.4-268.8 204.8-6.4 12.8-25.6 19.2-38.4 19.2zM512.96 964.288c-96 0-185.6-25.6-268.8-76.8-38.4-19.2-70.4-44.8-96-76.8v51.2c0 25.6-19.2 44.8-44.8 44.8s-44.8-19.2-44.8-44.8v-172.8c0-19.2 12.8-38.4 32-44.8 19.2-6.4 38.4 0 51.2 19.2 38.4 64 89.6 115.2 153.6 147.2 204.8 121.6 473.6 51.2 601.6-153.6 12.8-19.2 38.4-25.6 64-12.8 19.2 12.8 25.6 38.4 12.8 64-70.4 121.6-185.6 204.8-320 243.2-51.2 6.4-96 12.8-140.8 12.8z" p-id="5561"></path></svg>