<?xml version="1.0" standalone="no"?><!DOCTYPE svg PUBLIC "-//W3C//DTD SVG 1.1//EN" "http://www.w3.org/Graphics/SVG/1.1/DTD/svg11.dtd"><svg t="1784114198811" class="icon" viewBox="0 0 1024 1024" version="1.1" xmlns="http://www.w3.org/2000/svg" p-id="5972" xmlns:xlink="http://www.w3.org/1999/xlink" width="200" height="200"><path d="M506.304 329.312c-104.064 0-187.328 83.008-187.328 181.632a186.304 186.304 0 0 0 187.328 186.848 186.304 186.304 0 0 0 187.36-186.848c0-36.32-15.616-72.672-31.232-98.624l-62.496 57.12c5.28 10.4 10.496 25.92 10.496 41.504 0 62.304-46.848 109.024-104.128 109.024-62.464 0-109.28-46.72-109.28-109.024 0-57.088 46.816-103.776 109.28-103.776 15.584 0 31.232 5.152 46.816 10.368l57.312-57.088a188.16 188.16 0 0 0-104.128-31.136z m218.624-114.208c-5.28 0-5.28 0-5.28 5.216l-67.616 67.456c-5.184 5.216-10.464 10.4-10.464 20.8l5.28 36.288-119.744 119.392c-5.216 0-15.584-5.216-20.8-5.216-15.616 0-31.2 5.216-41.6 15.584-20.832 20.704-20.832 57.12 0 77.888 10.4 10.336 26.016 15.52 41.6 15.52 10.4 0 25.984-5.184 36.448-15.52 15.616-15.584 20.832-41.568 10.368-62.336l119.712-119.36 41.6 5.216c5.216 0 15.648 0 20.832-5.216l67.648-67.456c5.216-5.216 0-10.4-5.216-10.4l-62.432-5.216-5.184-67.456c-5.152 0-5.152-5.184-5.152-5.184z m-218.624-20.768c-176.928 0-317.44 145.344-317.44 316.608 0 176.448 140.544 321.824 317.44 321.824s317.44-145.376 317.44-321.824c0-57.088-15.584-114.176-46.816-160.896l-31.264 31.168c-5.216 5.184-15.584 10.368-20.736 10.368 15.52 36.352 25.952 77.888 25.952 119.36 0 140.192-109.312 249.152-244.576 249.152-140.512 0-249.76-108.928-249.76-249.152 0-134.912 109.28-243.936 249.76-243.936 41.632 0 83.264 10.4 119.744 31.136 0-10.4 5.152-15.552 10.336-20.736l36.48-36.352a323.328 323.328 0 0 0-166.56-46.72" fill="#5D5D5D" p-id="5973"></path></svg>